<svg xmlns:xlink="http://www.w3.org/1999/xlink" xmlns="http://www.w3.org/2000/svg" width="24" height="24" viewBox="0 0 24 24" class="icon icon icon--mini">
  <path d="M12.0024632,14.2556842 C13.2468632,14.2556842 14.2556842,13.2468632 14.2556842,12.0024632 C14.2556842,10.758 13.2468632,9.74924211 12.0024632,9.74924211 C10.758,9.74924211 9.74924211,10.758 9.74924211,12.0024632 C9.74924211,13.2468632 10.758,14.2556842 12.0024632,14.2556842 Z" id="Path" opacity="0.4" fill="#ED1C24"></path>
  <path d="M12.0024632,4.50644211 C13.2468632,4.50644211 14.2556842,3.49764 14.2556842,2.25322105 C14.2556842,1.00880211 13.2468632,0 12.0024632,0 C10.758,0 9.74924211,1.00880211 9.74924211,2.25322105 C9.74924211,3.49764 10.758,4.50644211 12.0024632,4.50644211 Z" id="Path" opacity="0.4" fill="#ED1C24"></path>
  <path d="M6.70408421,6.70187368 C7.584,5.82194526 7.584,4.39529684 6.70408421,3.51536842 C5.82416842,2.63544 4.39752632,2.63544 3.51759789,3.51536842 C2.63766316,4.39529684 2.63766316,5.82194526 3.51759789,6.70187368 C4.39752632,7.58178947 5.82416842,7.58178947 6.70408421,6.70187368 Z" id="Path" fill="#ED1C24"></path>
  <path d="M2.25322105,14.2556842 C3.49764,14.2556842 4.50644211,13.2468632 4.50644211,12.0024632 C4.50644211,10.758 3.49764,9.74924211 2.25322105,9.74924211 C1.00880211,9.74924211 0,10.758 0,12.0024632 C0,13.2468632 1.00880211,14.2556842 2.25322105,14.2556842 Z" id="Path" fill="#ED1C24"></path>
  <path d="M6.70408421,20.4861474 C7.584,19.6062316 7.58406316,18.1796211 6.70408421,17.2996421 C5.82417474,16.4197263 4.39752632,16.4197263 3.51759789,17.2996421 C2.63766316,18.1796211 2.63766316,19.6062316 3.51759789,20.4861474 C4.39752632,21.3661263 5.82417474,21.3661263 6.70408421,20.4861474 Z" id="Path" fill="#ED1C24"></path>
  <path d="M12.0024632,24 C13.2468632,24 14.2556842,22.9911789 14.2556842,21.7467789 C14.2556842,20.5023789 13.2468632,19.4935579 12.0024632,19.4935579 C10.758,19.4935579 9.74924211,20.5023789 9.74924211,21.7467789 C9.74924211,22.9911789 10.758,24 12.0024632,24 Z" id="Path" fill="#ED1C24"></path>
  <path d="M20.4883579,20.4862105 C21.3682737,19.6062947 21.3682737,18.1796211 20.4883579,17.2997053 C19.6084421,16.4197895 18.1817684,16.4197895 17.3018526,17.2997053 C16.4219368,18.1796211 16.4219368,19.6062947 17.3018526,20.4862105 C18.1817684,21.3661263 19.6084421,21.3661263 20.4883579,20.4862105 Z" id="Path" fill="#ED1C24"></path>
  <path d="M21.7467158,14.2556842 C22.9911789,14.2556842 23.9999368,13.2468632 23.9999368,12.0024632 C23.9999368,10.758 22.9911789,9.74924211 21.7467158,9.74924211 C20.5023158,9.74924211 19.4934947,10.758 19.4934947,12.0024632 C19.4934947,13.2468632 20.5023158,14.2556842 21.7467158,14.2556842 Z" id="Path" opacity="0.4" fill="#ED1C24"></path>
  <path d="M20.4883579,6.70193684 C21.3682737,5.82197684 21.3682737,4.39532842 20.4883579,3.5154 C19.6084421,2.63547158 18.1817684,2.63547158 17.3018526,3.5154 C16.4219368,4.39532842 16.4219368,5.82197684 17.3018526,6.70193684 C18.1817684,7.58185263 19.6084421,7.58185263 20.4883579,6.70193684 Z" id="Path" opacity="0.4" fill="#ED1C24"></path>
</svg>