<svg xmlns:xlink="http://www.w3.org/1999/xlink" xmlns="http://www.w3.org/2000/svg" width="24" height="24" viewBox="0 0 24 24" class="icon icon icon--mini">
  <path d="M21,0 C22.6568542,0 24,1.34314575 24,3 L24,3 L24,21 C24,22.6568542 22.6568542,24 21,24 L21,24 L3,24 C1.34314575,24 0,22.6568542 0,21 L0,21 L0,3 C0,1.34314575 1.34314575,0 3,0 L3,0 Z M3,2 C2.44771525,2 2,2.44771525 2,3 L2,3 L2,21 C2,21.5522847 2.44771525,22 3,22 L3,22 L8,22 L8,2 Z M10,22 L21,22 C21.5522847,22 22,21.5522847 22,21 L22,21 L22,3 C22,2.44771525 21.5522847,2 21,2 L21,2 L10,2 L10,22 Z M2,11 L8,11 L8,13 L2,13 L2,11 Z" fill="#ED1C24"></path>
</svg>